<svg xmlns="http://www.w3.org/2000/svg" viewBox="0 0 48 32" fill="none">
  <rect width="48" height="32" rx="4" fill="#000"/>
  <path d="M14.5 11.5c.5-.7.9-1.6.8-2.5-.8 0-1.8.5-2.3 1.2-.5.6-.9 1.5-.8 2.4.9.1 1.8-.4 2.3-1.1z" fill="#fff"/>
  <path d="M15.3 12.8c-1.3-.1-2.4.7-3 .7-.6 0-1.6-.7-2.6-.7-1.3 0-2.6.8-3.3 2-.7 1.2-.9 3.2.1 5 .5.9 1.1 1.8 1.9 1.8s1.2-.5 2.3-.5c1.1 0 1.4.5 2.4.5s1.4-.9 1.9-1.8c.3-.5.5-.9.6-1.2-1.4-.5-2-2.2-1.4-3.5.3-.7.8-1.2 1.4-1.5-.5-.8-1.3-1.3-2.3-1.3v.5z" fill="#fff"/>
  <path d="M22 21.5V11h2.9c2 0 3.4 1.4 3.4 3.4s-1.4 3.4-3.4 3.4h-1.5v3.7H22zm1.4-4.9h1.2c1.4 0 2.1-.7 2.1-2s-.7-2-2.1-2h-1.2v4z" fill="#fff"/>
  <path d="M29 18.3c0-2 1.3-3.2 3.2-3.2 2 0 3.2 1.2 3.2 3.2v.3h-5.1c.1 1.2.8 1.9 2 1.9.8 0 1.4-.3 1.6-.9h1.4c-.2 1.2-1.4 2-3 2-2 0-3.3-1.3-3.3-3.3zm1.3-.4h3.8c-.1-1.1-.8-1.8-1.9-1.8s-1.8.7-1.9 1.8z" fill="#fff"/>
  <path d="M36.5 24v-1.2c.1 0 .3.1.5.1.6 0 1-.3 1.2-.9l.1-.4-2.6-6.4h1.5l1.9 5.2 1.9-5.2H42l-2.7 6.9c-.6 1.5-1.3 2-2.5 2-.1 0-.2 0-.3-.1z" fill="#fff"/>
</svg>
