<svg xmlns="http://www.w3.org/2000/svg" viewBox="0 0 48 32" fill="none">
  <rect width="48" height="32" rx="4" fill="#fff"/>
  <rect x="0.5" y="0.5" width="47" height="31" rx="3.5" stroke="#E6E6E6"/>
  <path d="M22.4 16.4v4.4h-1.4V10.6h3.7c.9 0 1.7.3 2.3.9.6.6 1 1.4 1 2.3 0 .9-.3 1.7-1 2.3-.6.6-1.4.9-2.3.9h-2.3v-.6zm0-4.5v3.3h2.4c.5 0 1-.2 1.4-.6.3-.4.5-.8.5-1.3 0-.5-.2-1-.5-1.3-.4-.4-.8-.5-1.4-.5h-2.4v.4z" fill="#5F6368"/>
  <path d="M30.5 13.3c1 0 1.8.3 2.4.8.6.5.9 1.3.9 2.2v4.6H32.5v-1h-.1c-.5.8-1.2 1.2-2.1 1.2-.8 0-1.5-.2-2-.7-.5-.5-.8-1-.8-1.7 0-.7.3-1.3.8-1.7.5-.4 1.2-.6 2.1-.6.7 0 1.3.1 1.7.4v-.3c0-.5-.2-.9-.5-1.2-.4-.3-.8-.5-1.3-.5-.7 0-1.3.3-1.7.9l-1.2-.8c.6-.9 1.5-1.4 2.7-1.4l.4-.2zm-1.8 5.5c0 .4.2.7.5.9.3.3.7.4 1.1.4.6 0 1.1-.2 1.5-.6.4-.4.7-.9.7-1.5-.3-.3-.9-.4-1.5-.4-.5 0-.9.1-1.3.4-.7.2-1 .5-1 .8z" fill="#5F6368"/>
  <path d="M40.6 13.5L37 22.3c-.5 1.3-1.3 1.9-2.4 1.9-.3 0-.5 0-.8-.1v-1.2c.2.1.4.1.7.1.5 0 .9-.3 1.1-.8l.3-.7-3-6h1.5l2.1 5.2 2.1-5.2h1z" fill="#5F6368"/>
  <path d="M12.6 15.4c0-.4 0-.8-.1-1.1H8v2.1h2.6c-.1.6-.4 1.1-.9 1.4v1.2h1.5c.9-.8 1.4-2 1.4-3.6z" fill="#4285F4"/>
  <path d="M8 20.7c1.2 0 2.3-.4 3-1.1l-1.5-1.2c-.4.3-.9.4-1.5.4-1.2 0-2.2-.8-2.5-1.9H3.9v1.2c.8 1.5 2.3 2.6 4.1 2.6z" fill="#34A853"/>
  <path d="M5.5 16.9c-.1-.3-.2-.6-.2-1s.1-.7.2-1v-1.2H3.9c-.4.7-.6 1.5-.6 2.3 0 .8.2 1.6.6 2.3l1.6-1.4z" fill="#FBBC05"/>
  <path d="M8 12.9c.7 0 1.3.2 1.8.7l1.3-1.3C10.3 11.5 9.2 11 8 11c-1.8 0-3.3 1-4.1 2.6l1.6 1.2c.3-1.1 1.3-1.9 2.5-1.9z" fill="#EA4335"/>
</svg>
