<svg xmlns="http://www.w3.org/2000/svg" viewBox="0 0 48 32" fill="none">
  <rect width="48" height="32" rx="4" fill="#fff"/>
  <rect x="0.5" y="0.5" width="47" height="31" rx="3.5" stroke="#E6E6E6"/>
  <path d="M19.1 8h6.4c3.5 0 5.3 1.8 4.9 4.7-.5 3.7-3.1 5.8-6.7 5.8h-1.8c-.5 0-.9.4-1 .8l-.9 5.8c-.1.3-.3.5-.6.5H16l2.7-17c.1-.4.4-.6.8-.6h-.4z" fill="#003087"/>
  <path d="M31.5 8.8c1.2 1.1 1.5 2.8 1.2 4.8-.7 4.1-3.5 6.4-7.5 6.4h-1.1c-.5 0-.9.4-1 .8l-.6 4.3-.3 1.7c-.1.3-.3.5-.6.5h-3l.2-1.2.8-5c.1-.5.5-.8 1-.8h1.8c3.6 0 6.2-2.1 6.7-5.8.3-2-.1-3.5-1.2-4.5l.6-.2z" fill="#009CDE"/>
  <path d="M17.9 10.8c.1-.5.5-.8 1-.8h6.4c.8 0 1.5.1 2.2.2.7.2 1.2.4 1.7.7-.5 3.3-3 5.4-6.5 5.4h-3.3c-.5 0-.9.4-1 .8l-1.3 8.4H13l3.9-14.7h1z" fill="#012169"/>
</svg>
