<svg xmlns="http://www.w3.org/2000/svg" viewBox="0 0 48 32" fill="none">
  <rect width="48" height="32" rx="4" fill="#B6E800"/>
  <path d="M10 13h5a3 3 0 0 1 0 6h-2v3h-3v-9zm3 4.5h1.5a.5.5 0 0 0 0-1H13v1z" fill="#fff"/>
  <path d="M21 19c-.8 0-1.5-.3-2-.8-.5-.5-.8-1.2-.8-2s.3-1.5.8-2 1.2-.8 2-.8c.5 0 1 .2 1.4.4l-1 2.4 1 2.4c-.4.2-.9.4-1.4.4z" fill="#1D1D1B"/>
  <path d="M25 19.7l-1-2.5 1-2.5c.4-.2.9-.4 1.4-.4.8 0 1.5.3 2 .8s.8 1.2.8 2-.3 1.5-.8 2-1.2.8-2 .8c-.5 0-1-.2-1.4-.4v.2z" fill="#fff"/>
  <path d="M32 22v-9h3v6.5l2-4h3l-3.5 6.5H32z" fill="#1D1D1B"/>
</svg>
