<svg xmlns="http://www.w3.org/2000/svg" viewBox="0 0 48 32" fill="none">
  <rect width="48" height="32" rx="4" fill="#1A1F71"/>
  <path d="M20.8 21.2l1.9-11.2h3l-1.9 11.2h-3zm12.7-10.9c-.6-.2-1.5-.5-2.6-.5-2.9 0-4.9 1.5-4.9 3.6 0 1.6 1.4 2.5 2.5 3 1.1.5 1.5.9 1.5 1.4 0 .7-.9 1.1-1.7 1.1-1.2 0-1.8-.2-2.7-.6l-.4-.2-.4 2.4c.7.3 1.9.6 3.2.6 3.1 0 5.1-1.5 5.1-3.7 0-1.2-.8-2.2-2.4-2.9-1-.5-1.6-.8-1.6-1.3 0-.5.5-.9 1.6-.9.9 0 1.6.2 2.1.4l.3.1.4-2.5zm7.6-.3h-2.3c-.7 0-1.2.2-1.5.9L33 21.2h3.1l.6-1.7h3.8l.3 1.7h2.7l-2.4-11.2h-2.6zm-2.3 7.2c.2-.5 1-3 1-3l.2-.6.1.6.6 3h-1.9zM18.5 10l-2.9 7.6-.3-1.5c-.5-1.8-2.2-3.8-4-4.7l2.6 9.8h3.1l4.6-11.2h-3.1z" fill="#fff"/>
  <path d="M13 10H8.1l-.1.3c3.7.9 6.1 3.2 7.1 5.9l-1-5.1c-.2-.7-.7-.9-1.1-1.1z" fill="#F7B600"/>
</svg>
